<?xml version="1.0" encoding="iso-8859-1"?>
<!-- Generator: Adobe Illustrator 19.0.0, SVG Export Plug-In . SVG Version: 6.00 Build 0)  -->
<svg version="1.1" id="Capa_1" xmlns="http://www.w3.org/2000/svg" xmlns:xlink="http://www.w3.org/1999/xlink" x="0px" y="0px"
	 viewBox="0 0 512 512" style="enable-background:new 0 0 512 512;" xml:space="preserve">
<path style="fill:#FDE8A3;" d="M147.738,8.9c-18.122,3.432-33.661,14.309-43.755,30.627c-8.352,13.5-13.034,30.325-13.988,50.177
	c-19.852,0.953-36.677,5.637-50.177,13.988c-16.315,10.094-27.194,25.633-30.627,43.755c-7.49,39.551,20.219,81.725,63.08,96.013
	c58.979,19.659,116.884,1.725,140.572-7.652c0.645,1.028,1.401,2.007,2.296,2.901l260.891,260.891c6.403,6.403,16.786,6.403,23.19,0
	c6.403-6.403,6.403-16.786,0-23.19l-34.822-34.822c0.256-0.225,0.517-0.444,0.761-0.688l34.061-34.061
	c6.403-6.403,6.403-16.786,0-23.19c-6.403-6.403-16.786-6.403-23.19,0l-34.061,34.06c-0.245,0.245-0.462,0.505-0.688,0.762
	l-34.822-34.822l46.381-46.381c6.403-6.403,6.403-16.786,0-23.19c-6.403-6.403-16.786-6.403-23.19,0l-46.381,46.381l0,0
	l-144.94-144.94c-0.801-0.801-1.664-1.501-2.574-2.102c9.271-23.119,27.898-81.729,7.996-141.436
	C229.463,29.118,187.289,1.409,147.738,8.9z M212.638,82.352c17.308,51.923-1.654,105.224-8.465,121.565
	c-16.333,6.863-69.343,25.825-121.529,8.43c-30.424-10.141-45.089-38.417-41.229-58.797c1.233-6.511,4.211-12.087,8.773-16.649
	c10.601-10.601,29.75-15.722,55.396-14.372c4.642,0.244,9.17-1.493,12.456-4.78s5.024-7.815,4.78-12.456
	c-1.931-36.682,9.377-60.071,31.02-64.169C174.221,37.264,202.496,51.929,212.638,82.352z"/>
<path style="fill:#FDDA6B;" d="M483.205,482.178L222.313,221.287c-0.895-0.895-1.651-1.872-2.296-2.901
	c-23.688,9.377-81.594,27.311-140.572,7.652c-42.863-14.288-70.571-56.461-63.08-96.013c0.222-1.177,0.481-2.341,0.766-3.495
	c-3.816,6.401-6.522,13.434-7.94,20.918c-7.49,39.551,20.219,81.725,63.08,96.013c58.979,19.659,116.884,1.725,140.572-7.652
	c0.645,1.028,1.401,2.007,2.296,2.901L476.03,499.601c6.403,6.403,16.786,6.403,23.19,0c4.124-4.124,5.576-9.896,4.389-15.196
	C497.265,488.456,488.746,487.721,483.205,482.178z"/>
<path d="M475.305,441.626l29.35-29.35c4.548-4.548,7.054-10.597,7.054-17.03c0-6.433-2.506-12.482-7.054-17.03
	c-9.39-9.391-24.67-9.391-34.061,0l-29.35,29.35l-23.915-23.916l40.946-40.946c9.39-9.39,9.391-24.67,0-34.061
	c-9.39-9.389-24.67-9.39-34.061,0l-40.949,40.949c-98.5-98.387-128.871-128.611-138.527-138.09
	c9.791-26.171,25.781-83.52,6.304-141.951C235.563,23.114,189.55-6.845,146.307,1.348c-20.267,3.838-37.62,15.963-48.862,34.136
	c-8.036,12.991-12.952,28.784-14.65,47.022c-18.238,1.697-34.031,6.614-47.022,14.65c-18.174,11.244-30.297,28.596-34.136,48.862
	c-8.191,43.251,21.767,89.257,68.203,104.736c57.936,19.312,114.965,3.656,141.035-5.964c4.147,4.211,12.359,12.451,28.959,29.109
	c2.997,3.006,7.864,3.014,10.87,0.018c3.007-2.997,3.015-7.864,0.019-10.871c-24.663-24.748-31.145-31.303-32.11-32.318
	c-2.111-2.4-5.544-3.276-8.599-2.067c-21.694,8.587-78.302,26.511-135.312,7.507c-39.29-13.097-64.749-51.439-57.959-87.29
	c3.026-15.976,12.657-29.702,27.118-38.649c12.344-7.635,27.989-11.957,46.503-12.847c3.955-0.19,7.119-3.353,7.308-7.308
	c0.89-18.512,5.212-34.158,12.848-46.503c8.945-14.461,22.671-24.092,38.648-27.118c35.849-6.788,74.194,18.669,87.29,57.959
	c19.157,57.47,0.9,114.355-7.837,136.144c-1.227,3.058-0.359,6.515,2.064,8.639c4.438,4.206,98.008,97.615,147.152,146.703
	c3.002,2.999,7.866,2.998,10.868-0.003l46.381-46.381c3.396-3.396,8.924-3.395,12.32,0c3.396,3.396,3.396,8.924,0,12.32
	l-46.381,46.381c-3.002,3.002-3.002,7.869,0,10.87l34.822,34.822c3.088,3.088,8.298,2.929,11.193-0.342l34.427-34.48
	c3.113-3.114,8.244-3.38,11.659-0.598c3.947,3.216,4.261,9.316,0.661,12.918l-34.035,34.036c-1.567,1.479-2.802,3.247-3.004,5.446
	c-0.206,2.244,0.624,4.542,2.218,6.137l34.822,34.822c3.362,3.362,3.352,8.957,0,12.32c-3.35,3.361-8.965,3.355-12.317,0.002
	c-1.246-1.247-125.502-125.609-202.345-202.641c-2.998-3.006-7.865-3.011-10.87-0.013c-3.006,2.999-3.011,7.865-0.013,10.871
	c76.848,77.037,201.107,201.403,202.355,202.652c9.284,9.284,24.776,9.284,34.061,0c9.284-9.284,9.284-24.776,0-34.061
	L475.305,441.626z"/>
<path d="M105.987,114.853c-27.729-1.456-48.908,4.285-61.236,16.612c-5.713,5.714-9.377,12.662-10.889,20.653
	c-4.461,23.555,11.992,56.067,46.35,67.519c16.345,5.448,32.769,7.487,48.21,7.487c36.561-0.001,67.575-11.437,78.727-16.122
	c1.861-0.782,3.34-2.265,4.118-4.129c6.645-15.942,26.91-72.212,8.663-126.953c-11.452-34.358-43.962-50.809-67.519-46.351
	c-25.838,4.892-39.422,31.181-37.267,72.126c0.129,2.462-0.795,4.874-2.54,6.618C110.861,114.057,108.445,114.981,105.987,114.853z
	 M123.475,123.184c4.82-4.82,7.379-11.488,7.021-18.296c-1.706-32.42,7.324-52.909,24.774-56.214
	c17.211-3.261,41.245,9.618,50.075,36.107c15.595,46.783-0.086,95.46-7.081,113.243c-17.698,7.011-66.155,22.708-113.191,7.03
	c-26.488-8.828-39.366-32.867-36.106-50.075c0.928-4.901,3.168-9.155,6.656-12.644c8.034-8.034,22.851-12.33,42.171-12.33
	c4.79,0,9.634,0.69,14.344-0.457C116.408,128.511,120.367,126.293,123.475,123.184z"/>
<g>
</g>
<g>
</g>
<g>
</g>
<g>
</g>
<g>
</g>
<g>
</g>
<g>
</g>
<g>
</g>
<g>
</g>
<g>
</g>
<g>
</g>
<g>
</g>
<g>
</g>
<g>
</g>
<g>
</g>
</svg>
