<?xml version="1.0" encoding="utf-8"?>
<!-- Generator: Adobe Illustrator 23.0.3, SVG Export Plug-In . SVG Version: 6.00 Build 0)  -->
<svg version="1.1" id="Layer_1" xmlns="http://www.w3.org/2000/svg" xmlns:xlink="http://www.w3.org/1999/xlink" x="0px" y="0px"
	 viewBox="0 0 50 50" style="enable-background:new 0 0 50 50;" xml:space="preserve">
<style type="text/css">
	.st0{fill:#2980B9;}
	.st1{fill:#037CC6;}
	.st2{fill:#9B59B6;}
	.st3{fill:#27AE60;}
	.st4{fill:#E74C3C;}
	.st5{fill:#34495E;}
	.st6{fill:#D35400;}
	.st7{fill:#E22D2D;}
	.st8{fill:#1ABC9C;}
	.st9{fill:#F39C12;}
	.st10{fill:#E67E22;}
	.st11{fill:url(#SVGID_1_);}
	.st12{fill:url(#SVGID_2_);}
	.st13{fill:url(#SVGID_3_);}
	.st14{fill:url(#SVGID_4_);}
	.st15{fill:url(#SVGID_5_);}
	.st16{fill:url(#SVGID_6_);}
	.st17{fill:url(#SVGID_7_);}
	.st18{fill:url(#SVGID_8_);}
	.st19{fill:url(#SVGID_9_);}
	.st20{fill:url(#SVGID_10_);}
	.st21{fill:url(#SVGID_11_);}
	.st22{fill:url(#SVGID_12_);}
	.st23{fill:url(#SVGID_13_);}
	.st24{fill:url(#SVGID_14_);}
	.st25{fill:url(#SVGID_15_);}
	.st26{fill:url(#SVGID_16_);}
	.st27{fill:url(#SVGID_17_);}
	.st28{fill:url(#SVGID_18_);}
	.st29{fill:url(#SVGID_19_);}
	.st30{fill:url(#SVGID_20_);}
	.st31{fill:url(#SVGID_21_);}
	.st32{fill:url(#SVGID_22_);}
	.st33{fill:url(#SVGID_23_);}
	.st34{fill:url(#SVGID_24_);}
	.st35{fill:url(#SVGID_25_);}
	.st36{fill:url(#SVGID_26_);}
	.st37{fill:url(#SVGID_27_);}
	.st38{fill:url(#SVGID_28_);}
	.st39{fill:url(#SVGID_29_);}
	.st40{fill:url(#SVGID_30_);}
	.st41{fill:url(#SVGID_31_);}
	.st42{fill:url(#SVGID_32_);}
	.st43{fill:#0C0C0C;}
	.st44{fill:none;stroke:#0C0C0C;stroke-width:2;stroke-linecap:round;stroke-linejoin:round;stroke-miterlimit:10;}
	.st45{fill:#FFFFFF;stroke:#0C0C0C;stroke-width:2;stroke-linecap:round;stroke-linejoin:round;stroke-miterlimit:10;}
	.st46{fill:#FB0101;}
	.st47{fill:url(#SVGID_33_);}
	.st48{fill:url(#SVGID_34_);}
	.st49{fill:#403D3D;}
	.st50{fill:#926DDE;}
	.st51{fill:#33CABB;}
</style>
<g>
	<linearGradient id="SVGID_1_" gradientUnits="userSpaceOnUse" x1="4.5574" y1="24.6968" x2="45.616" y2="24.6968">
		<stop  offset="8.379889e-03" style="stop-color:#FB0101"/>
		<stop  offset="1" style="stop-color:#403D3D"/>
	</linearGradient>
	<path class="st11" d="M25.1,4.2c-11.3,0-20.5,9.2-20.5,20.5s9.2,20.5,20.5,20.5S45.6,36,45.6,24.7S36.4,4.2,25.1,4.2z M25.1,6.2
		c10.2,0,18.5,8.3,18.5,18.5c0,4-1.3,7.8-3.5,10.8c-1.2-0.8-2.6-1.3-4.1-1.5c-5.6-0.7-6.3-4.1-6.4-5.3c2.3-1.7,3.5-5.3,3.5-8
		c0-4.7-3.5-8.5-7.8-8.5h-0.4c-4.3,0-7.8,3.8-7.8,8.5c0,2.7,1.2,6.3,3.5,8c-0.1,1.2-0.7,4.5-6.4,5.2c-1.5,0.2-2.9,0.7-4.1,1.5
		c-2.2-3.1-3.5-6.8-3.5-10.8C6.6,14.5,14.9,6.2,25.1,6.2z M25.1,43.2c-5.4,0-10.3-2.4-13.7-6.1c0.9-0.5,1.9-0.9,3.1-1
		c8.7-1.1,8.1-7.8,8.1-7.9c0-0.3-0.2-0.6-0.5-0.7c-1.6-1-3-4-3-6.6c0-3.6,2.6-6.5,5.8-6.5h0.4c3.2,0,5.8,2.9,5.8,6.5
		c0,2.6-1.3,5.6-3,6.6c-0.3,0.2-0.4,0.4-0.5,0.7c0,0.1-0.6,6.7,8.1,7.9c1.1,0.1,2.2,0.5,3.1,1C35.4,40.9,30.5,43.2,25.1,43.2z"/>
</g>
</svg>
